<mxfile host="app.diagrams.net" modified="2021-10-11T12:06:59.792Z" agent="5.0 (Windows NT 10.0; Win64; x64) AppleWebKit/537.36 (KHTML, like Gecko) Chrome/94.0.4606.71 Safari/537.36" etag="Wsny8G0i4XtIJHRyd8RV" version="14.9.3" type="github">
  <diagram id="IuqWY1DBT38WxFUhOocw" name="Page-1">
    <mxGraphModel dx="1422" dy="802" grid="1" gridSize="10" guides="1" tooltips="1" connect="1" arrows="1" fold="1" page="1" pageScale="1" pageWidth="850" pageHeight="1100" math="0" shadow="0">
      <root>
        <mxCell id="0" />
        <mxCell id="1" parent="0" />
        <mxCell id="hWzD5ViZPiVPNGfACp9m-2" value="Tallyman&lt;br&gt;" style="shape=process;whiteSpace=wrap;html=1;backgroundOutline=1;" vertex="1" parent="1">
          <mxGeometry x="620" y="89" width="120" height="60" as="geometry" />
        </mxCell>
        <mxCell id="hWzD5ViZPiVPNGfACp9m-4" value="D365 Letter templates" style="shape=process;whiteSpace=wrap;html=1;backgroundOutline=1;" vertex="1" parent="1">
          <mxGeometry x="100" y="89" width="120" height="60" as="geometry" />
        </mxCell>
        <mxCell id="hWzD5ViZPiVPNGfACp9m-10" value="" style="endArrow=classic;html=1;exitX=0;exitY=0.5;exitDx=0;exitDy=0;" edge="1" parent="1" source="hWzD5ViZPiVPNGfACp9m-2">
          <mxGeometry width="50" height="50" relative="1" as="geometry">
            <mxPoint x="590" y="108" as="sourcePoint" />
            <mxPoint x="220" y="118" as="targetPoint" />
          </mxGeometry>
        </mxCell>
        <mxCell id="hWzD5ViZPiVPNGfACp9m-11" value="2nd Class Letters&amp;nbsp;" style="text;html=1;strokeColor=none;fillColor=none;align=center;verticalAlign=middle;whiteSpace=wrap;rounded=0;" vertex="1" parent="1">
          <mxGeometry x="355" y="88" width="140" height="20" as="geometry" />
        </mxCell>
        <mxCell id="hWzD5ViZPiVPNGfACp9m-12" value="Lion 3rd Party printer" style="shape=process;whiteSpace=wrap;html=1;backgroundOutline=1;" vertex="1" parent="1">
          <mxGeometry x="621" y="258" width="120" height="60" as="geometry" />
        </mxCell>
        <mxCell id="hWzD5ViZPiVPNGfACp9m-13" value="" style="endArrow=classic;html=1;entryX=0.5;entryY=0;entryDx=0;entryDy=0;" edge="1" parent="1" target="hWzD5ViZPiVPNGfACp9m-12">
          <mxGeometry width="50" height="50" relative="1" as="geometry">
            <mxPoint x="680" y="148" as="sourcePoint" />
            <mxPoint x="670" y="258" as="targetPoint" />
          </mxGeometry>
        </mxCell>
        <mxCell id="hWzD5ViZPiVPNGfACp9m-15" value="1st Class letters&amp;nbsp;" style="text;html=1;strokeColor=none;fillColor=none;align=center;verticalAlign=middle;whiteSpace=wrap;rounded=0;" vertex="1" parent="1">
          <mxGeometry x="690" y="180" width="120" height="20" as="geometry" />
        </mxCell>
        <mxCell id="hWzD5ViZPiVPNGfACp9m-18" value="&lt;font style=&quot;font-size: 16px&quot;&gt;Current Letter generation process&lt;/font&gt;" style="text;html=1;strokeColor=none;fillColor=none;align=center;verticalAlign=middle;whiteSpace=wrap;rounded=0;" vertex="1" parent="1">
          <mxGeometry x="190" y="28" width="320" height="20" as="geometry" />
        </mxCell>
        <mxCell id="hWzD5ViZPiVPNGfACp9m-19" value="" style="endArrow=classic;html=1;" edge="1" parent="1">
          <mxGeometry width="50" height="50" relative="1" as="geometry">
            <mxPoint x="610" y="288" as="sourcePoint" />
            <mxPoint x="190" y="158" as="targetPoint" />
          </mxGeometry>
        </mxCell>
        <mxCell id="hWzD5ViZPiVPNGfACp9m-20" value="PDFs stored in D365" style="text;html=1;strokeColor=none;fillColor=none;align=center;verticalAlign=middle;whiteSpace=wrap;rounded=0;" vertex="1" parent="1">
          <mxGeometry x="269" y="248" width="125" height="20" as="geometry" />
        </mxCell>
        <mxCell id="hWzD5ViZPiVPNGfACp9m-21" value="Who prints the 2nd class letters generated by D365 ?" style="text;html=1;align=center;verticalAlign=middle;resizable=0;points=[];autosize=1;strokeColor=none;" vertex="1" parent="1">
          <mxGeometry x="10" y="310" width="300" height="20" as="geometry" />
        </mxCell>
        <mxCell id="hWzD5ViZPiVPNGfACp9m-22" value="D365 Letter templates" style="shape=process;whiteSpace=wrap;html=1;backgroundOutline=1;" vertex="1" parent="1">
          <mxGeometry x="69" y="598" width="120" height="60" as="geometry" />
        </mxCell>
        <mxCell id="hWzD5ViZPiVPNGfACp9m-23" value="Arena&amp;nbsp;" style="shape=process;whiteSpace=wrap;html=1;backgroundOutline=1;" vertex="1" parent="1">
          <mxGeometry x="639" y="598" width="120" height="60" as="geometry" />
        </mxCell>
        <mxCell id="hWzD5ViZPiVPNGfACp9m-25" value="" style="verticalLabelPosition=bottom;html=1;verticalAlign=top;align=center;strokeColor=none;fillColor=#00BEF2;shape=mxgraph.azure.service_bus_queues;pointerEvents=1;" vertex="1" parent="1">
          <mxGeometry x="383" y="603" width="82.5" height="85" as="geometry" />
        </mxCell>
        <mxCell id="hWzD5ViZPiVPNGfACp9m-26" value="&lt;b&gt;Service bus&lt;/b&gt;" style="text;html=1;strokeColor=none;fillColor=none;align=center;verticalAlign=middle;whiteSpace=wrap;rounded=0;" vertex="1" parent="1">
          <mxGeometry x="370" y="578" width="85" height="20" as="geometry" />
        </mxCell>
        <mxCell id="hWzD5ViZPiVPNGfACp9m-28" value="" style="endArrow=classic;html=1;" edge="1" parent="1">
          <mxGeometry width="50" height="50" relative="1" as="geometry">
            <mxPoint x="199" y="618" as="sourcePoint" />
            <mxPoint x="369" y="618" as="targetPoint" />
          </mxGeometry>
        </mxCell>
        <mxCell id="hWzD5ViZPiVPNGfACp9m-29" value="" style="endArrow=classic;html=1;" edge="1" parent="1">
          <mxGeometry width="50" height="50" relative="1" as="geometry">
            <mxPoint x="465.5" y="618" as="sourcePoint" />
            <mxPoint x="625.5" y="618" as="targetPoint" />
          </mxGeometry>
        </mxCell>
        <mxCell id="hWzD5ViZPiVPNGfACp9m-30" value="" style="endArrow=classic;html=1;entryX=1.075;entryY=0.85;entryDx=0;entryDy=0;entryPerimeter=0;" edge="1" parent="1" target="hWzD5ViZPiVPNGfACp9m-22">
          <mxGeometry width="50" height="50" relative="1" as="geometry">
            <mxPoint x="369" y="649" as="sourcePoint" />
            <mxPoint x="379" y="648" as="targetPoint" />
          </mxGeometry>
        </mxCell>
        <mxCell id="hWzD5ViZPiVPNGfACp9m-31" value="" style="endArrow=classic;html=1;" edge="1" parent="1">
          <mxGeometry width="50" height="50" relative="1" as="geometry">
            <mxPoint x="629" y="648" as="sourcePoint" />
            <mxPoint x="469" y="648" as="targetPoint" />
          </mxGeometry>
        </mxCell>
        <mxCell id="hWzD5ViZPiVPNGfACp9m-34" value="Batch of Template Name and tenantId paramters" style="text;html=1;strokeColor=none;fillColor=none;align=center;verticalAlign=middle;whiteSpace=wrap;rounded=0;" vertex="1" parent="1">
          <mxGeometry x="509" y="658" width="110" height="40" as="geometry" />
        </mxCell>
        <mxCell id="hWzD5ViZPiVPNGfACp9m-36" value="Document Sharepoint location and TenantId&amp;nbsp;" style="text;html=1;strokeColor=none;fillColor=none;align=center;verticalAlign=middle;whiteSpace=wrap;rounded=0;" vertex="1" parent="1">
          <mxGeometry x="239" y="568" width="120" height="20" as="geometry" />
        </mxCell>
        <mxCell id="hWzD5ViZPiVPNGfACp9m-37" value="Document Sharepoint location and TenantId&amp;nbsp; add to Document Tab" style="text;html=1;strokeColor=none;fillColor=none;align=center;verticalAlign=middle;whiteSpace=wrap;rounded=0;" vertex="1" parent="1">
          <mxGeometry x="489" y="528" width="120" height="70" as="geometry" />
        </mxCell>
        <mxCell id="hWzD5ViZPiVPNGfACp9m-38" value="Lion 3rd Party printer" style="shape=process;whiteSpace=wrap;html=1;backgroundOutline=1;" vertex="1" parent="1">
          <mxGeometry x="60" y="792" width="120" height="60" as="geometry" />
        </mxCell>
        <mxCell id="hWzD5ViZPiVPNGfACp9m-39" value="" style="endArrow=classic;html=1;" edge="1" parent="1">
          <mxGeometry width="50" height="50" relative="1" as="geometry">
            <mxPoint x="119" y="658" as="sourcePoint" />
            <mxPoint x="120" y="788" as="targetPoint" />
          </mxGeometry>
        </mxCell>
        <mxCell id="hWzD5ViZPiVPNGfACp9m-40" value="All letters&amp;nbsp;" style="text;html=1;strokeColor=none;fillColor=none;align=center;verticalAlign=middle;whiteSpace=wrap;rounded=0;" vertex="1" parent="1">
          <mxGeometry x="129" y="738" width="120" height="20" as="geometry" />
        </mxCell>
        <mxCell id="hWzD5ViZPiVPNGfACp9m-42" value="Batch of Template Name and tenantId paramters" style="text;html=1;strokeColor=none;fillColor=none;align=center;verticalAlign=middle;whiteSpace=wrap;rounded=0;" vertex="1" parent="1">
          <mxGeometry x="229" y="668" width="110" height="40" as="geometry" />
        </mxCell>
        <mxCell id="hWzD5ViZPiVPNGfACp9m-44" value="Stage 1&amp;nbsp; ArenaD365&amp;nbsp; Letter generation process" style="text;html=1;strokeColor=none;fillColor=none;align=center;verticalAlign=middle;whiteSpace=wrap;rounded=0;fontSize=14;" vertex="1" parent="1">
          <mxGeometry x="210" y="450" width="310" height="20" as="geometry" />
        </mxCell>
        <mxCell id="hWzD5ViZPiVPNGfACp9m-45" value="Will we continue to distinguish between&amp;nbsp; 1st and 2nd class letters?" style="text;html=1;align=center;verticalAlign=middle;resizable=0;points=[];autosize=1;strokeColor=none;fontSize=14;" vertex="1" parent="1">
          <mxGeometry x="85" y="930" width="430" height="20" as="geometry" />
        </mxCell>
      </root>
    </mxGraphModel>
  </diagram>
</mxfile>
